<svg width="24" height="22" viewBox="0 0 24 22" fill="none" xmlns="http://www.w3.org/2000/svg">
<path d="M11.1328 15.9922C10.5143 15.3411 10.2051 14.5436 10.2051 13.5996C10.2051 12.6556 10.5306 11.8581 11.1816 11.207C11.8327 10.556 12.6139 10.2305 13.5254 10.2305C14.4694 10.2305 15.2669 10.556 15.918 11.207C16.569 11.8581 16.8945 12.6556 16.8945 13.5996C16.8945 14.5111 16.569 15.2923 15.918 15.9434C15.2669 16.5944 14.4694 16.9199 13.5254 16.9199C12.5814 16.9199 11.7839 16.6107 11.1328 15.9922ZM9.86328 17.2617C10.8724 18.2708 12.0931 18.7754 13.5254 18.7754C14.9577 18.7754 16.1784 18.2708 17.1875 17.2617C18.2292 16.2526 18.75 15.0319 18.75 13.5996C18.75 12.1673 18.2292 10.9466 17.1875 9.9375C16.1784 8.89583 14.9577 8.375 13.5254 8.375C12.0931 8.375 10.8724 8.89583 9.86328 9.9375C8.85417 10.9466 8.34961 12.1673 8.34961 13.5996C8.34961 15.0319 8.85417 16.2526 9.86328 17.2617ZM6.25 9.40039V6.27539H9.375V3.15039H16.6504L18.5547 5.25H21.875C22.4284 5.25 22.9167 5.46159 23.3398 5.88477C23.763 6.30794 23.9746 6.79622 23.9746 7.34961V19.8496C23.9746 20.403 23.763 20.8913 23.3398 21.3145C22.9167 21.7051 22.4284 21.9004 21.875 21.9004H5.22461C4.67122 21.9004 4.18294 21.7051 3.75977 21.3145C3.33659 20.8913 3.125 20.403 3.125 19.8496V9.40039H6.25ZM3.125 3.15039V0.0253906H5.22461V3.15039H8.34961V5.25H5.22461V8.375H3.125V5.25H0V3.15039H3.125Z" fill="#AD82F7"/>
<path d="M11.1328 15.9922C10.5143 15.3411 10.2051 14.5436 10.2051 13.5996C10.2051 12.6556 10.5306 11.8581 11.1816 11.207C11.8327 10.556 12.6139 10.2305 13.5254 10.2305C14.4694 10.2305 15.2669 10.556 15.918 11.207C16.569 11.8581 16.8945 12.6556 16.8945 13.5996C16.8945 14.5111 16.569 15.2923 15.918 15.9434C15.2669 16.5944 14.4694 16.9199 13.5254 16.9199C12.5814 16.9199 11.7839 16.6107 11.1328 15.9922ZM9.86328 17.2617C10.8724 18.2708 12.0931 18.7754 13.5254 18.7754C14.9577 18.7754 16.1784 18.2708 17.1875 17.2617C18.2292 16.2526 18.75 15.0319 18.75 13.5996C18.75 12.1673 18.2292 10.9466 17.1875 9.9375C16.1784 8.89583 14.9577 8.375 13.5254 8.375C12.0931 8.375 10.8724 8.89583 9.86328 9.9375C8.85417 10.9466 8.34961 12.1673 8.34961 13.5996C8.34961 15.0319 8.85417 16.2526 9.86328 17.2617ZM6.25 9.40039V6.27539H9.375V3.15039H16.6504L18.5547 5.25H21.875C22.4284 5.25 22.9167 5.46159 23.3398 5.88477C23.763 6.30794 23.9746 6.79622 23.9746 7.34961V19.8496C23.9746 20.403 23.763 20.8913 23.3398 21.3145C22.9167 21.7051 22.4284 21.9004 21.875 21.9004H5.22461C4.67122 21.9004 4.18294 21.7051 3.75977 21.3145C3.33659 20.8913 3.125 20.403 3.125 19.8496V9.40039H6.25ZM3.125 3.15039V0.0253906H5.22461V3.15039H8.34961V5.25H5.22461V8.375H3.125V5.25H0V3.15039H3.125Z" fill="url(#paint0_linear_8_9)"/>
<defs>
<linearGradient id="paint0_linear_8_9" x1="0" y1="-1" x2="29.9153" y2="8.46537" gradientUnits="userSpaceOnUse">
<stop stop-color="#26CECE"/>
<stop offset="1" stop-color="#AD82F7"/>
</linearGradient>
</defs>
</svg>
