<svg width="35" height="27" viewBox="0 0 35 27" fill="none" xmlns="http://www.w3.org/2000/svg">
<path d="M26.1507 15.1209L17.188 24.3C16.5938 24.9083 15.788 25.25 14.9478 25.25C14.1075 25.25 13.3017 24.9083 12.7075 24.3L3.74481 15.1225C3.00392 14.3705 2.41538 13.476 2.013 12.4904C1.61061 11.5049 1.4023 10.4476 1.40001 9.3794C1.39773 8.31118 1.60152 7.25301 1.99969 6.26566C2.39785 5.2783 2.98255 4.38119 3.72022 3.62584C4.45789 2.8705 5.33399 2.27178 6.29824 1.86407C7.26248 1.45636 8.29588 1.24768 9.33909 1.25002C10.3823 1.25236 11.4148 1.46567 12.3773 1.8777C13.3398 2.28973 14.2133 2.89237 14.9478 3.65102C16.4395 2.16151 18.4443 1.33379 20.5279 1.34716C22.6114 1.36053 24.6059 2.21391 26.0794 3.72244C27.5528 5.23097 28.3865 7.27318 28.3998 9.40667C28.4132 11.5402 27.6051 13.5931 26.1507 15.1209Z" stroke="black" stroke-width="2.5" stroke-linecap="round" stroke-linejoin="round"/>
<circle cx="29" cy="6.75" r="5" fill="#AD82F7" stroke="white" stroke-width="2"/>
</svg>
