<svg width="24" height="30" viewBox="0 0 24 30" fill="none" xmlns="http://www.w3.org/2000/svg">
<path d="M17 4.02515H20C20.5304 4.02515 21.0391 4.23586 21.4142 4.61093C21.7893 4.98601 22 5.49471 22 6.02515V26.0251C22 26.5556 21.7893 27.0643 21.4142 27.4394C21.0391 27.8144 20.5304 28.0251 20 28.0251H4C3.46957 28.0251 2.96086 27.8144 2.58579 27.4394C2.21071 27.0643 2 26.5556 2 26.0251V6.02515C2 5.49471 2.21071 4.98601 2.58579 4.61093C2.96086 4.23586 3.46957 4.02515 4 4.02515H7" stroke="black" stroke-width="2.25" stroke-linecap="round" stroke-linejoin="round"/>
<path d="M14.7 1.9751H9.3C8.30589 1.9751 7.5 2.78099 7.5 3.7751V4.6751C7.5 5.66921 8.30589 6.4751 9.3 6.4751H14.7C15.6941 6.4751 16.5 5.66921 16.5 4.6751V3.7751C16.5 2.78099 15.6941 1.9751 14.7 1.9751Z" stroke="black" stroke-width="2.25" stroke-linecap="round" stroke-linejoin="round"/>
<path d="M7.5 12.9751H16.5M7.5 19.4751H16.5" stroke="black" stroke-width="2.25" stroke-linecap="round" stroke-linejoin="round"/>
</svg>
