<svg width="23" height="28" viewBox="0 0 23 28" fill="none" xmlns="http://www.w3.org/2000/svg">
<path d="M16.65 7V7.15H16.8H21C21.3315 7.15 21.6495 7.2817 21.8839 7.51612C22.1183 7.75054 22.25 8.06848 22.25 8.4V23.8C22.25 24.8741 21.8233 25.9043 21.0638 26.6638C20.3043 27.4233 19.2741 27.85 18.2 27.85H4.2C3.12587 27.85 2.09574 27.4233 1.33622 26.6638C0.576695 25.9043 0.15 24.8741 0.15 23.8V8.4C0.15 8.06848 0.281696 7.75054 0.516117 7.51612C0.750537 7.2817 1.06848 7.15 1.4 7.15H5.6H5.75V7V5.6C5.75 4.15457 6.32419 2.76834 7.34627 1.74627C8.36834 0.724195 9.75457 0.15 11.2 0.15C12.6454 0.15 14.0317 0.724195 15.0537 1.74627C16.0758 2.76834 16.65 4.15457 16.65 5.6V7ZM14 7.15H14.15V7V5.6C14.15 4.81761 13.8392 4.06727 13.286 3.51403C12.7327 2.9608 11.9824 2.65 11.2 2.65C10.4176 2.65 9.66727 2.9608 9.11404 3.51403C8.5608 4.06727 8.25 4.81761 8.25 5.6V7V7.15H8.4H14ZM2.8 9.65H2.65V9.8V23.8C2.65 24.2111 2.8133 24.6053 3.10398 24.896C3.39467 25.1867 3.78891 25.35 4.2 25.35H18.2C18.6111 25.35 19.0053 25.1867 19.296 24.896C19.5867 24.6053 19.75 24.2111 19.75 23.8V9.8V9.65H19.6H16.8H16.65V9.8V11.2C16.65 11.5315 16.5183 11.8495 16.2839 12.0839C16.0495 12.3183 15.7315 12.45 15.4 12.45C15.0685 12.45 14.7505 12.3183 14.5161 12.0839C14.2817 11.8495 14.15 11.5315 14.15 11.2V9.8V9.65H14H8.4H8.25V9.8V11.2C8.25 11.5315 8.1183 11.8495 7.88388 12.0839C7.64946 12.3183 7.33152 12.45 7 12.45C6.66848 12.45 6.35054 12.3183 6.11612 12.0839C5.8817 11.8495 5.75 11.5315 5.75 11.2V9.8V9.65H5.6H2.8Z" fill="black" stroke="white" stroke-width="0.3"/>
</svg>
